<mxfile host="65bd71144e">
    <diagram id="HIP3nbAZw_EuaXWnEj3U" name="Page-1">
        <mxGraphModel dx="1086" dy="658" grid="1" gridSize="10" guides="1" tooltips="1" connect="1" arrows="1" fold="1" page="1" pageScale="1" pageWidth="850" pageHeight="1100" math="0" shadow="0">
            <root>
                <mxCell id="0"/>
                <mxCell id="1" parent="0"/>
                <mxCell id="8" value="http://ics2o.mths.ca" style="swimlane;whiteSpace=wrap;html=1;" vertex="1" parent="1">
                    <mxGeometry x="10" y="50" width="803" height="540" as="geometry"/>
                </mxCell>
                <mxCell id="9" value="&lt;h1 style=&quot;margin-top: 0px; line-height: 270%;&quot;&gt;&lt;font style=&quot;font-size: 30px;&quot;&gt;multiplying with while loops, with JS&lt;/font&gt;&lt;/h1&gt;" style="text;html=1;whiteSpace=wrap;overflow=hidden;rounded=0;" vertex="1" parent="8">
                    <mxGeometry x="20" y="20" width="550" height="70" as="geometry"/>
                </mxCell>
                <mxCell id="10" value="&lt;font style=&quot;font-size: 26px;&quot;&gt;Enter number to multiple with the second number:&lt;/font&gt;" style="text;html=1;align=left;verticalAlign=middle;whiteSpace=wrap;rounded=0;" vertex="1" parent="8">
                    <mxGeometry x="20" y="100" width="450" height="30" as="geometry"/>
                </mxCell>
                <mxCell id="11" value="Number..." style="rounded=1;whiteSpace=wrap;html=1;align=left;fillColor=light-dark(#FFFFFF,#000000);strokeColor=light-dark(#000000,#FFFFFF);" vertex="1" parent="8">
                    <mxGeometry x="20" y="160" width="280" height="30" as="geometry"/>
                </mxCell>
                <mxCell id="12" value="&lt;font style=&quot;font-size: 17px;&quot;&gt;Calculate&lt;/font&gt;" style="rounded=1;whiteSpace=wrap;html=1;align=center;fillColor=light-dark(#FFFFFF,#000000);strokeColor=light-dark(#000000,#FFFFFF);" vertex="1" parent="8">
                    <mxGeometry x="20" y="322.13" width="200" height="30" as="geometry"/>
                </mxCell>
                <mxCell id="13" value="&lt;span style=&quot;font-size: 26px;&quot;&gt;Your number is 49&lt;/span&gt;" style="text;html=1;align=left;verticalAlign=middle;whiteSpace=wrap;rounded=0;" vertex="1" parent="8">
                    <mxGeometry x="20" y="360" width="530" height="30" as="geometry"/>
                </mxCell>
                <mxCell id="15" value="&lt;span style=&quot;color: rgb(63, 63, 63); font-size: 26px;&quot;&gt;Enter number to multiple with the first number:&lt;/span&gt;" style="text;html=1;align=left;verticalAlign=middle;whiteSpace=wrap;rounded=0;" vertex="1" parent="8">
                    <mxGeometry x="20" y="212.13" width="380" height="30" as="geometry"/>
                </mxCell>
                <mxCell id="16" value="Number..." style="rounded=1;whiteSpace=wrap;html=1;align=left;fillColor=light-dark(#FFFFFF,#000000);strokeColor=light-dark(#000000,#FFFFFF);" vertex="1" parent="8">
                    <mxGeometry x="20" y="262.13" width="280" height="30" as="geometry"/>
                </mxCell>
                <mxCell id="19" value="" style="shape=image;verticalLabelPosition=bottom;labelBackgroundColor=default;verticalAlign=top;aspect=fixed;imageAspect=0;image=data:image/jpeg,/9j/4AAQSkZJRgABAQAAAQABAAD/2wCEAAkGBxISEhUSExMWFRUXGCAaFxcWGR8aHRoYHR4ZFx0fGBoaIiggHholGxgaITEhJSkrLy4uGh8zODMtNygtLisBCgoKDg0OGxAQGzAiICUvMi01LTUrLy0tLzItLy0tLS0tLS81LS0tLS0tLS8tLS0tLS0tLS8tLS0tLS0tLS0tLf/AABEIAMcA/QMBIgACEQEDEQH/xAAcAAABBQEBAQAAAAAAAAAAAAAFAAMEBgcCAQj/xABLEAACAQIDBQQGBAoIBgIDAAABAgMAEQQSIQUTIjFBBjJRYRRCUmJxciMzgbEHFlSRkpPB0uHiFSRDobKzwvA0U2OC0eNz0xdEov/EABoBAAIDAQEAAAAAAAAAAAAAAAABAwQFAgb/xAAyEQABAwIEAwgCAQQDAAAAAAABAAIRAwQSITFBE1GRBRQiMmFxgdEVM6EGscHhI0JS/9oADAMBAAIRAxEAPwDcaVKlQhKlSpUISpUqVCEqVeOLgi9vMdK+dpO3W2EEsQxJfOZDFKVjuiYbemUWC2JKqOnhQhfRVKsZwO3ccZcKr7QlCzbMbEsSsQ+ls5FuDkNDb3detObB7SYvf7LOIx7iKfDST4jOIlXgztqcgstgAdeQoQtipVke359qDaGGgh2paPHGaSErHGVSNU3kQuVJYHkTfla1DdvdotpQDbFsdITgvR93wRWvMyh78FyBcgf30IW3UqxPHbZ2zFBA8uImhWbHRwxtIkAkaGRLsXCqVGVl4T7zX6WP9pO1Ey7Swww2KMmHaCZ2jTIyvJAsjZc2UsCWUKQD06UIWm0qyzsbtTFSJhdozbURonSZ8Vh2yADKrlVhULcZAuZrm9lvyvQvsL2tx+PfF4U4kxzTxCfCM0dhCuchlF1GcZStjqNDrzoQtnpVi2zdobVeDaWI/pJyuCfER5THHdjEoaNgQltTe48OVPbK23jsXLhMI2PeAHZ/pbzBYw8kjMdCStgiDoANFa5PMCFsdKsCn7fbUOH2fihMxzxzHEIqR8aQPlaRbi4fIxvY2ul7cxV27MdpMUNgSbQeQzz5JnUuqgDIzouiAcICBj8TrQhaPSrIPS8euBbGrtbeZ8AZih3RdZxlc7tclhEBwEHUXPlaP2M7ZY1sWhxc0qQJs70p0cRWkIAGcFFuEObMBcG4F9NKELZ6VYh2Y7d4ybDbSWXEMs64b0vDtkClVALMih1syg5VvY3BNj1qT2B25tPaAnw/prxuIsPIryxxh1zcUhjVVs0bLyLcrryuaELZqVZx+CfEbQxIOKxGNM0V5It0yICHVwFYFFGmUHTzrR6EJUqVKhCVKlSoQlSpUqEJVHxuOihAMsiRgmwLsFBbnYFjqdDp5VIqr/hF2NNjMIcNDHGzO63aRrboA3LpYayC1hqOf2EQrDg8bFMueKRJFvbMjBhccxddL1FhxUrAMAgB+NDfwf7LmwuBiw88UUbxjKd0bq/vm4HGxuTz1uetEcB9Wvwqle1X02gtK6aJXqYt2LANESpswFzY2BsddDYg28xTE20pVcpZNADfXqWH+mg3YrY0uFbGZ40jSbEtNGEfNwsFXXQWPBf/ALvKiGNH0zfIv3vVZlzU4mHFIUtNgJzXUm2jcRsYszA2QtqR1sOZFAv6GwcURiXA4YI5syhT1Avrz1yC/jYUG23sDEy7Sw+ISGHdRshdy5EjWzLe1jogdrKCLnnfQCz44aL8w+41c4jss1MykwmCEI2jsrAGGOObB4YRQ33YYlQmY5iAdNCxvbxp3HbIwU2VpMDhnyIETQ2Ea91VtoFF9LVA7Z7MlxGH3cUaSNm9dsuXhdcyGxGYFuo5FutqIbHwjRYaKJsuaOJUOW+W6qFOW+ttKkxmFP3eniIw5KV/R2Hd4Z2wkG8iVBE1jdFTVAp8FvUd9iYCVpmOEwzs7nfcyS985z2PezG9jU0xs0OVGyMY7K9r5WK2Bt1sdbVXPwe9ncTgVxEczK4eXOjC5LaZWZ76hmyqSLnUnWuOIY1WPiKOYzZuGxCJDLhIHjg4IlYEhBlQ8PhpYfZUfCbJwEU0Zjw2FSaPuWPGvNtBe/rE/bROEcUnzj/BHVVTs5ONrHGBUWI3LMWDMw3SxqApW6EMCbhtR8bVeY0FoMLjGeaJSdncAjswwGGzSXDaHkQSbDkL+VqdXD4OB45/RcPG0QCRyEkZBqAAT5MdPM1Oxg1T4n7jVR7f9np8YsO5scm8DKzZQS8ZRWuQQcp5i2oJtVgUm4JiVPTzZJR6LZmDihljTA4cRygGRBezhLsub4HUVNx3ZPBNEkcuEw26huUBBAQElm1uLKSSSL2qMkTLBlaxKx2JAsCQtjYdBfpVl2jg0mikikXOjqVZbkZgRYi41F/GsPtqs+2fTFMwDrv/AHUwYEIj2Lg5WSRYMI5iTdIyC4RLHgGXQCznT3qWDxC4eM4WKCJYUuoQXy2Ylm0PQljp51x2E2AcFhFjZEWV2aSURgBd45vZQNAqqFUeS1xiR9JJ8x/ZWfRvarqrm4pA9ApqFJrjBCEYbY2zVMsaYHCXcDeLck5bhwCOarmVTYWGgpvaGzsCpUHZ2Ga6ZRe+irlAHw1/uoPsTs1iItoy4lgm7YykEHnvDGVstrhhkN7sR4AUd2uOKP4N96VoGs8GAZVu3tab3AObvzUHFjAErvMBhb5RGmZjfKBlCrfwGlhUvDS4aNlZMBArBd0pBNxG5IK8uXG2nnVN7X9n5cU8ZjIAy5GYkcIzo9wCpN+HmCDy6VZ+q/Mv+IV2aroGasusqUP8EQMjJzyVi2RiIcEpTD4eGBXbUKSAzWsPibD+6p6dp2YlQIyV7wDXI+I6VUe0OzJJZsJJGituZs7FmykJbKQuhve4P/aPGhnZXs1Nh8TJLJkC5XQFTdpS8xmDOLCxCnLregVHROJeZxGNVoKdpZCL7tBqep6Ej9leDtSxykCKzd3iPFpfh8dNdOlVraWFMuGmiChi6yKFY2BJLAXNjYX1oJh9gzqdmsY0vhVKStn1tk3XDw6j1unh51rNptgZbBRio7mrtju2UsbBd0huL94j9lRG/CCwveKMZe9eS1vjppQbbg41+X9pqkT7ImtiQkUX0soePM1wLaFiLd64zW1Fz5a6LbSlww7BJz3Ku0hiphxWubI7ZvNLHHukAc2zByehNxprVyrG+wGFaJ8JGwAKNYgG49bqfz1slUL2k2m8BoiRMJ1AAclD2qLx2PIugPwzrQnb88WFw0uJMG8ESFyqBbkDU89LAanyB58qKbZfLFexNnTl/wDIlCdqvFiYXgkSXJIuVwpCkqeYuGvYjQ+RNYF4HcRsTCGAkKTs1IpYo5d0o3iK9rA2zANa9tedR9kbNhMERMaklATp5V1s+eOGNIUSXKihVzEMbDQXJa50pvZG0QIIhkfuL0HgPOqRbUgxOv2u8J5LvAR4WYyhIx9FIY3upHGArG1+Ysw161GxmzohKRu17i9PN6l4aeKMuUhKl2zuVVRmc2BZrHVrAa+VRcRis0rEI/cX2fF/eqSkHB+8Lum3xZodO+GSePDtHxyhilkJXhFzduQNh93iLuY3Z8Vl4F7w6eTV3Jho2kWZsPeVAQkhVCyg3uFa9wNT+c17jZzZeBu97vg3vVdBzCst1zQzarYfDRPNJHwILtlXMQOV7DoKknAxEXCLqPCvMXGkqGOWDeIeauqsDY3FwTbmL060pseBuXu/+amlWIE+icw2z4si/Rr3R08hUXY8+ExSGSAK6B2TMBoSuht4jwPUVOw0pyLwN3R7PgPOucLCkWYRwZAzF2yhRdzzY2OpNudRyvPJuHARXk+jXvjp7iVHE2F9J9FyDe7ve2y6ZL5dD1N+lTIZjmk4G749n2E868EKbzfbj6XLk3lkzZL3y5r3y31tWpS8gUe6ZxmAiunAvM9PI0O2ziMLhUV5VADMEFluSxBP5gFJv5UVxkpunA3M+z4HzqPioklAWSHOAQQGVSARyOp51bZ5clboeReYnARBW4F7p6eRqxSbOhAJ3YNhewFz9g6mgGJmORuBu6fZ8D51ZDiT/wAt/wD+f3q81/UZIfTw+v8AhThDtj+jYmJZo4iFa4AdCp4SVOh8waFYnARbx+Be8enwqw4YiNFjSFkRRZVUKAANAAAdBQLEzHeScDd4+Hl51kWjiajoJj3Vi3AxZoVh58M88uHVfpIgC/DYcQBFj10I/PTW1cFGGTgHJvvSiEcKK7SLDZ3tmcKoZgNBc3ubVD2vKcycDcm8PFPOtUEzktC3AxiUDx82HhMYcWMjBF0vxGwH95H+waljBx3XhHeX/EK8ljVypaLMUN1JCnKfEXOhp3em68Ld5fD2h51Ir1UDA+Y0yy9EUxiwRLndNMyroL6uwRfszMNaY2ViMNiVZoluFbIbrbWytpfoVZSD51MxCLIuV4i63BswUi4NwbE8wQDXmGjSMERw5ASWIUKLseZNjzPjSnJeH2TeHwMdu4O83+I1FwOJw0pCohuys4zIV0VzGefXMOXPxtU6CU27jd5vD2j50zhsHFGQyYcKQCoKqoIUnOQLHkW1PnXoWDwt9lFOqF7cwcYdeAd39poFjMVh4iQym6hSbKTo5ZV/vU1YNuSHOvC3d8vE+dBsRhIpCS8Acm18yqeV7cz0ufz1r0W/8IwxPstW3E0gjPZjDoMXAQoBz/sIrXKyXsy/9bg4SOPy8D51rVZfakcYRy+0q2qgbc+pPzp/mJVM7azsmEkZBOWuthhgd42o4QRqoI0LDUC9tauHaK+4NjY5k1Fv+YnjpVV2hjxAhklmdVFhcKGNyQoACoSSSQLAdaxaoJcCp7dpLCuOxMsrYKAzGQy5bOZVKuWDEahtbaaE6kWPWiGyfqYvkX7hUPZ2NE8aSxTs6OLqwC6j7UuPga52Xn3Mf0jdxeieA92oiwqyGOyXew5MUWxHpC5VEp3B4NYraHgY9b97Xl8BPT6xvlX73qHFOWvlmLZTZrZDZhzBsuh8q5TPnb6Ru6vRPF/dpFhKBTcucZLixi4FjjU4Uq++fMMytY5NDrluB3bm51sBrNxvJfm/Y1RmnIYIZiGa+VTkubc7DLc2rjEhzl+kbveCeDe7TDTITFMgyonaR8SMO5wihptMoNuWYZrZiBfLfmaIC+Ti55dfjbX++mZ+AFnmKqOZbdgDpqSvjXTwtY/SPy8E/dqTZTbyp2F7ifKPuFDezT4sxMcYoWTeNYDL3NLd0kc7+drXqXBGQikyMBlFzwWGny0onVyQs+YixIUxki4uL2XS41HjUS84nYe9J84/wR0Bmm2j6SAqLuN/Yscl9zli97Nz32tr3EeliaMQxHNJ9I/fHRPYj92k0qBspxFmLZQuaO+awNrZb5rEG3mK1aX6wuN11jOafE/caD7dlxSlfR0LDJJmsE0ew3ffYdb9D5+ZPGQm6fSPzPRPA+7TEzBNWmK6E8RQaDUnVeQHOrjM2q3Q8ibwjSnDKZhaXdfSDTR8vF3SRzvyNWLtA04w0xwwBnyHdA21fpfMQPzn8/KgEqZoyRKxBUkEZCCLdDl5VYsQN2pd8QyKNSzbsADzJWwrzP8AUOVSl8/OinChbCmxjSYkYmNUQSD0cqwOaLKOdtcwI1v1OlwLmHifrJPmP7KMxLmvlxDNY2Nt2bGwNjZdDYg/aKAYmFt4/wBI/ePRPL3ax7Q4qpMAZaKxb+ZAYZtoekRhkAgzy7wnIDkF90RZieWXz717aVN2x3o/g33pUhJFbQT3NyosYzxDUju8wOY6VC2vEcycbcm9nxT3a1Zk6QtC2EPG6AbckxYv6OoPBpfL386e0R6mfpaikRNkzc7pf43W9MTTKmjzZTa/EUGl7X1HK+l6dVCcp3jEZl9n2h7tSnRXaohrzJ0OXJEe0EmIWEnDLmlzCw4eV9e+wHLzv9482A+KKOcUoVt4cgFu5ZfZJHezW62tfWpcxCC7zFRe12yAXOg1K869is1ysxYAkG2Q2I0INl5jwrmcoXiNkoO6fmb/ABNQDYOI2iZVGJjyx5HzE7vv5+DuOT3Oelvjzo3h4jb6xu83s+0fdriGdHICYgMSLgK0ZuAbEiy8r6X8a9Ezyt9lFMSoG3PrF+X9pqqbUmxokbcxhkstrlRrcZstze9r96w5+AvZ9txHOvG3d93xPu0KeRVJBmsRa9ygtflfTrWxRbiogSQtW3/UEa7Nn+twfP8AsNavWS9mUIxcHETx8jbwPgK1qsvtX9w9vtKtqhnaRgMOxJsM0ep/+RKpm3F30LRxzxxsbXLAOCt+JSLg2YXFwQRfQ3q7bc+pPzp/mJVS7U7aODwzzBS7DRVAJ4jyLW1CDmT4CsaofEIQy44YLYmVF7O4dMLh4sPvlfdqFzEgX+y+g6U9szEpuY+Ne4vUeAp3sjtc4vCQYg2zSLdsoIAYEhgA2tgQambKY7mLX1F+4VEXc1IL4jRqE7LwkEDTMsuYzSGRszLoSALDKBoAOtz5mpKYqPO3GvdX1h4vXWxduDEviECOm4l3fHcFhlBzWI0BJNudwAetEEPG3yr970FyBfkZYUBxOz8O+JixRk+kiUqoDrlIIYajnyduRHMXvYWmT4qO6ca972h4NXuL23u8ZDhN2x3qM2e+i5Qxta2vdOt9Lr40RmbVPm/0tQXI7+R/1QLb2DgxcLQSS5VYgko6htCG0Jvblb7amieILlDrYCw4hyAtXW29sDD7q4vvHK3LBQto5JLm/Q5Mv/cK62DtX0rDR4gLlzqTlve1iV52Hh4D4USYR3864UneGSDdtIoDx5TZlvYrY87i+vUVB2PsvD4aR5VnLs6Roc7R2CxAqtsqjXUk/Gij4ndwGTnkjzWva+Vb2udByobsDtJ6VLLGIygjSNg+a4beKH0sNAL2vfXwrnODCoKfDi480n0id8esPYj86EPsLCnEDEGY5xMZgA6AZyiRkd29rRr1uddbEij0JOaT5/8ARHVbHbMeleiiEk77dFw9x01tl71zcrfRVc3upFalOOG2VHnJhGsZi47p9InM+sPZPnQjbWzsPibZ5stkdOFk1EgANywJ0ygi2njej2MOqfE/car/AGh7SDCPGhjaTOrtZDdhkUtottb2te4t52NrbYwZ6K3R8ilYYQw4dYUkXLHHkW7gmyrYXt10o/t6LD4qCTDvOEVxYsjpmAuDoWBAOnO1x0sdaCYHHb/DJNYrvIg+W97Zlvbpe17VYO0m1vRMNLiCubdi+UtlvqBa9jrr0Brzfb88Wlh12/hThRtiYbDYXeBJw28cO2Zk0IRItMoGmWNftvQ/EYyPeP8ASJ3z6w8qm9lu0npu+tEYxE+UEm+YW58hbly10IPWmcSfpJPnP7KyLcOFZ2PWFYtvNkqpg+zuEjnXECdjIru+sigHeKFYFVAGWwFuug1IAFTtr4qMsnGvJvWHilRMB2tEk6wbu2aSRM2e/wBWoa44RcG9uehBGtjYhtc8Ufwb70rVOLF4lftcJeMPNVnaWzMPO+d5f7Mx5QyWsTcnUXzed9OlExiI+EBk7y6Aj2hQrbvaH0Zyu6Mn0efRresE4tNF1vm8jRiCTMEbUXKG3hcqakMwJVx5ZFQN1gyp22MPDiY908oCkgnKy30N7ag6f31xsXBYfCqyxyAh3LnM6k3sqgC1tAqqPHTUk092g2x6LCZijOAQLKD1IFza9lHj/wCa57P7a9KR3yMmWQpZutgpvyGvFYjoQR0rnxYfReKzhPQYqPKeNe83rD2moPsfYOGw8iyLMWZUdRmdLfSPvGPCo1v9gtyo7A3Cefeb/E1ANhdrhiZViEMsZZZGu4IsUfIF1GrFeI+zcDU16BmHC2eSjzzhO7cxKbxeNe77Q8TVZ2jsiCZy7yG5AGjKLW8NL/n+y1Wvbp41+X9pqp7V7RCGQxbpmICm+oBzGxsbG9vv0rXYWcAcTRadvHCEq09mZVOLgAYE5+hHga1qso7N/wDFwfP+w1q9Zvav7h7faK2qHbfvuTaxOZOZt/aJ1sfuoBMrOrI8cbKwKsrOSCDoQQUsQRparBt36k/On+YlUntvs5sTg3iRGkJZCVUopKq6sbGTgvYcjoazhSa4SQqrzmEUwOH3SrHFDEiDkqNlUXNzYCOw1JP201st5NzHwp3F9c+A9ymOyGElhwcEUyqsipZlQAAG5NgF4b2OttL3qZsv6mP5F+4V0LemdlFKdzyeyn6w/uU0ryZ24E7q+ufF/cqLsLATxGczSmQSTM8YLFsiHkovyA8B+c1PTvt8q/e9HdqfJEpZ5PZT9M/uU1M8l04U73tn2W9yhG1tkYuSbNHiN3HvImy5m7qBw4sBYXZlOW5DZdaOYjmnzf6Wo7tT5IlLPJ7Kfpn9yvGeSx4U/TP7lQtt4OaXd7mTdlWYtxEXBjkQDhGtmZW19n83ew8JLFh445pN5IqkM5JbMbk6s2pNiBfTlyHKju9Pkick/hnkyLwp3R658Pkp3PJ7KfrD+5UXEwu+HZI2yu0dlNytiVsDddR8RrQ3svsnFwFziMRvgURRxMbMosx4uV/LnzOtHd6fJEorA0maThTv+2fYj9yns8nsp+sP7leQd6T5x/gjqujYmN9K3vpNod+ZN2JJD9Ha2Ug6eeUEAX624pgMIACWqNYxpLpwpzPrnwPuVxmk9lP0z+5UjGc0+J/wmgHaPZeJmaMwT7oKrhuJxmLLYCy6c9c3NbaVZZk1XKPkRPEmTI3CndPrnwPuVZc8vsJ+sP7lVfCQPHh1SR87rFZn14mC2J115+NHu0eDlmw0sUL7uRhZXzMmU3GuZNRp/u1eZ/qLOpSB9fjRThSs8vsJ+sP7lV3EtJvJOFO8fXPl7lTuzGy8TAZ/SJzNnkzJdmOVbWsM3dF+gv8AE30jYn6yT5j+yse1AFVwBBy1Vi28yjZpPZT9M/uUM2uz5k4V5N658U92oWz9i45cQJJcWHjEjtlGYXRlsqlb5bA2Pll0vmNEtsd5Pg33pWrAB1laFsSXjKEOzP7K/pH92ld7jhXvL6x9oe7QfbuzMTK14cRu1yZcoJUhswbMGXrYW5aa+NGowRlB1N1uftFS5Qr1VxLHggiAc+aN55PZT9M/uV7mk9lf0z+5UHb+DmmiyQybp8ynNmK6A3Iuutj4aX5XHOvNgYKaFHE0u9ZpCym5NlIUW4vMFrchmsNBXMCJXh9lIgZ7HhXvN659o+5TmaT2V/TP7lKDkfmb/E1V/s9sXGQyI02JMqiIqyl3a7lywbisLhTa/la3WvRMPhb7KKNU9txnzrwr3faPifdodmfwX9I/u0V2531+X9pqpbT2ZiXlZ48RkUgALdhYjrppz18+RsK2aLi2iCBK1bf9QVr7MlvS4Lgd/oxPQ+6K1qso7N/8XB8/7DWr1ldq/uHt9pVtUM7Rj6BufeTkSD9YnUa1TNu7SjwkLTyNJlBAsJGuWY2AuzADU8yQAL1dO0X1B0J4k5C5+sToKqO2NlDExbp1lAzKysqMGVlIZSt1IuCOoIqnSrU2NIc4A+pC5aJC42LjFxMKTrvVV9QGkYnQkc1cg8uhrrZkX0MfE/cX+0fwHvV1sbZYw0SQxpLlW+rIxJLEsxJtzLEnQAV3sxW3MfA/cX1G8B5VO25t4ze3qF1hHJMbPx8M5kEUruYnMclnkFnHMXJsfsvT6Rcbav3V/tH8W86WD2ckRcxwspdiz2R9WNyTy8ST9p8acRWztwP3V9RvF/KgXVDd7eoTwjkoGM2rh4myPJIGzohsZTZpL5LkXFjbnyFS54tU4n73/Mf2W96mMXsKGV88kDs2ZWuVk7yXyG3LS5t8alzq104H73sN4N5UC5obvb1CWEclGx2Kihy7yR1zEheOQ3Kq0h5HThRj9lLAYmOeJZopHZHBKnPIL8xyYgjUHnT2N2ckwUSQu4UkgFH5lSh5DXhZhr0JpYXBLDGI44nVFvYBH6kk8xckkk3PjS71Qnztj3CMI5JvMscWdmkCqlzZ5CbAX0VSSfgBUfZm1cPiCRDM7lVR2AeQWWQFkvc6EgXtzGl7VL9F3kOR43ZWSzDI+oI1FwKa2bsSHDkmHDlCVCkrG+qr3QdOl6O9UJHjbHuEYRyTsEWsnE/f/wCY/sJ71Dzt3Db3cmaQSZ93lJlHFp1OluJRmva7AX1onArZpOB+/wCw3sJ5VEGwYN5vfRm3mfPmyPfOev59bcri/Og3NDZ7eoRhGwUiaEZk1fmfXfwPnULau08NhiomkdMwZgbykWQZm1W4BsOR1PSiMqtmTgfmfUbwPlUfaGxopyrSwM5UEKSj6BhY2052J15jpTN1QjJ7eoTjkuY2jlg3sbOyPHmU5nF1K3GhN+XjVh2pLBh4nnmkZI0GZmMj6D4A3J6ADUmghwwjhKJG6oqEABGsABYdKObRWCeNopo2kjYWZWicgj9H++vN9vVWVH0y0yM5g+y6CZ2Zi8PiDIInkJjbK92lWxtfTMRcWPMXFC8ThxvJNW7x9d/LzolsnA4XDZ9xC0ecgtZJDcgWHMHppQ3EYgbyTRu8fUby8qzLWOK7DMRurFt5s0Hg21hHlEKzM0hZ1ADSWLRgFxm7ugPj417tiAZk1bk3rt4p517h9j4OOTepAFkzFsyow4mGUm1rXtp9p8a82vOMyaNyb1G8U8q1Mp8K0LacYxIJjtqYaFikkjKQm8PE/cvlvcaXvpbmanLEDlILasvrt4jzqHjMDh5SWkizkrlN0bu87cvEnXnUqORRlUBgAVAGVtACB4VIYhXauLA/FEQY5ortTFw4aPezOypcC+aQ6nQABSSa92bioJwzROzBWKnikHEAD6xGlmBBGhBFq7x8MMyZJYy63vYo/MfAf7ua8wOHhhBWKMoC2YhUbUmwvy8AB5AAUso9V4jKF1BAuU6t3m9dvabzobszb2DxDiOGZnZlLgAyjhU5Sbmw5/nolBOuU6N3m9RvabyqHgdlYWFg8UORgMoIR+R+I/2NOVehZOFsclFlnKjbchGddW7vtN4nzoBidowRuUdnDCxOkhFjYDUadaPbbmGde93fZbxPlQXF4SGS+dC17Xurercry8CxP21sUJ4IwxPqtW3nhBHOzMQGLg1Pf6sT0PQmtarJezMgOLg59/qpHQ+IrWqy+1f3D2+0q2qh7W+r/wC+P/MSgHbSV0wcsiTNCYxvCyKGYqvEVUNpmYDKCb2JvRntC5WAlbXDJa+v9olVvGbeeJDJJLEiDmzLYamw9bmSbV5LtGi91djmiY+13RplzSQiHZSLELhIRiZDJOUDSMQBxNxWsABw3y8ulStj/URfIv3Cg+E228qrJHJE6NqrKtwR5HNTWy9ozCGMXTuD1T4D3qzH2lV2ImMz9qYUHorsWTEs0/pAQKJSsOVSpMVgQWuxubki4tfLe2tTI/rX+VfvehA2pN7Sfon96mk2lNvGN07q+qfF/epOtKjiTACOA9cba2pj45WWDDb1BLCM1rWja5mIueJhYAWta/W1H8TzT5/9LUHO1JfaT9E/vU3PtGa6ap3vZPg3vV0bV5A8IEfyjgPUrtBjcTG+HEEe8VpLTcGbLHbncMttfI3qTseeaTCxvOmSZowZEtbK9uIAEnS9+pqAdqTe0n6J/erxtpzEHiTl7J/epG1qFgbhHujgPRDFTSJhGeJc0ixXRcua7ZdBlzLfXpmHxFCOx+0tozPIMZh1hUJEUIUglyv0gN2bQNyt0505htpzBF1S2UeqfAe9Tg2rMeTR/on96mLaoGluEGd9wjgPRfC96X5x/lx1WxtTaXpe73C+j+kFS5Qg7kKNQc5F81+K1iOl+GpGH2jNmk1TV/ZPsJ71O/0pNyzR/on4+1Qy1qNmWgyN0cB6MTd+P4n/AAmgfazaeOheIYXD71GWQyOBnKsFO7ATMtwXtc38tKUu0ZsyapzPqnwPvU4dqTDm0f6J/eoZa1GkEgH3RwHqXhp5XwQeZckrQXkW1srlLsALnQNfqa77R4nER4aV8LEJZwv0aE2BPn42520va1xeheN2lMYn1S2RvVPgfep9tpzD1k/RP71LulTFMDXT/COA9Lspj8ZMJjioBDZ7RC1iU8+I3tprpqT4UziR9JJ85+4U6Npze1H+if3qgB5GLMWW5Y+r8POrFGi5tQuIAB2Clo03MOar2z9o7RadFkw6rCZJA72N8gF4yOLTXQkjW+gsL0U2x3o/g33pU6ze2vhy6/noZtdXzJxDk3q+aedX5BOkK7bAteN1WtuY3GJIRBEGTd3DEFryXOlgw0sB58V9bGjcZPBfQ3W487imzm9tfzfxrrK1xxDvL6vvDzqUmQr1RpDHmSZBy5Irtp5xFfD5TJmUcSlhYsFJIDLoAcxN+QPOmNgYnEyK5xMYjYSEKALXSykHmfWLC/XLewvU8hhzcfo/xpAN7Q/R/jXM5QvDzlC8w/I/M3+JqD7GmxxkXfiIIUYtlRlIYOVQXLkapxEdKKQK9u8O83q+83nXQzH11/N9njXomCWt9lFzQvbnfX5f2mqltPHYtJHEUAdAFynrclc3UX0J08r/ABtG3FbOvEO77PmfOhpLe0PzfxrYotLqIAJC1bcTSCL9m/8Ai4Pn/Ya1esl7MhvS4Lkd/wAPI+da0Ky+1f3D2+0q2qF9pT/V2+ZP8xKoXabZ5xMBiR1U50fUkA5GD2zLxLe3eXUVdu2Q/qknzJ/mJWX7dxm4i3ixhjmVdRoMxC5mygmwv0FYNdpNQRqtCyoh9BznGB/pHezOB9Gw0UDSK7IDdhoNWLaddL2udTa5qVs2Rd1HqO4Oo8BVZ7P40YmCObIFzXuPMErp5aXqRgIxu00HdHTyqs5msrRZaggYTlHL2RPYmyY8KZysmbfSmVsxGhbWwt0/38Z6SLnbUd1evm9VXZW0Y8QZQqEbqQxtcDUjwt/vlUtY1ztoOQ6fNQ5hnMoZaggYTkndrdmocRLvGlI+kjksuW14gyi569/7LCjU8i3XUd7x8mqmbR27DDJu2jJOdE0y/wBoGIPO9hlN7/xopLGLroO94eTU3NMCSky1aScLs91P25slMSYi0pTdPmGXLcnlox1X4jy8BTuxMAmFw6YdZC4jBAZiL2uT000vb7KAbV2hHAYwUzGRsqgZRxdO8Rz/AN9Lu7PnWaJZQmUOLgG17dDpcajX7aMBwxOSQtW4yA7NHp4llgMRYAPHlJ0PMW5HQ/A0O7Odn4sGzskpbMkaWIQaRAqDdQLnU6moUsixwmQqCFS9tBewvzNh+eoWxNtxYpmVI2XKqNdgNc4vYW8KAx2EwckOtmYwC7PZXKGVbvqO94+4lV/8VIfSjid/ISZRLlJUgNw8iRcDgUeS3XkaUMYu+g73h7qUJHaKAz+jhGzbzdk2AsbA3sdctza/W3hrQ1rs8KKlswRjdvkrtJIuZdRzPXyNB+0nZ6LGFC8zpkDrZSLEOuU3B62PMa0xJGMy6Dr08jQ7a22YsO6K6E5lZrqAe4L2tzuelDGkHwlOpatDTjOSs0GGSDCiFWuI4cgJIuQq5Re3XSvdu4CPFQPAz2V7XIseTBuvwoBFOkuHEqrYPHmAI1F1vY+ddbYxaYeJpmXMFtooFySQotfzIpBhnXNM2rcMl2UfwiuwdixYQylJC29fM2cjnr1Hxt8APtI4eVeLUd49aqex9px4jPkS2RgDfKb3AbTKTU2GNddB3j0oc0zmUU7VpaMByXmzeyUME6zrO5KySSZSwykyKFNx46A360S2xIuZNRybr5pVZw+3I2lWEwlWZ3VSSmpjFyQAxNtCOXMUVaMZxoO6enmtdOa6Zcnb0GNOJh0KF7a2HDiSSzAMY93mAUkAsG5t10sPC5trRWJlAQZhoVHToQKF7U27FBI0bRklYt6SAtrXItqRroTRfILroO8vT3hXRmBKlfgw1C3WDKmdoNlx4uHcvJlGYNdSL3Hx/wB/dXOwdkxYRHRJCwdy5zEcyFXpbooJPMkk9a629tSPCRb10LLmC2UC9zfx+H3V5sLa0WLR3RCoRyhzAakKrX0J6ONDqDcdK58WH0Xic4UyJ1seId5uo9pqr3Z/sjBhJFlSZmKxmMBstrFi3TzP+xpVgjUBSbDQt095qA7A7XYfFyLEkbqWjLgsFtYNl6H/AHyr0DcOFs8lHnnCk7dkXOuo7vj5mqntLs/FNI0jSsCwAsCLaW/PyHPlVs24gzroO74eZqqY3tDFGSpRiQXGmX1ACevXMP22rWZw+AOJotO3jhCVbOzTj0uDUd/9hrWayDsZOss+FlUWDsGAPMXU87Vr9ZvahmqD6faKuqD9rkJwrgcyyf5iVn+M2MZVySRqy3BsW6jUHTretE7Sf8O3zJ/mJWc7cglOLwTosrIjvvCp4ACpVSy31N252NhesOt5wnTvatEFjYg8xKew+ynRVRUVVAsADYAeWlM7PwUu6Q5R3R63l8KHdgsBiopJDOsi3RQ5dswkmzyFnTU8OQoL6fDSrPs76mP5B91QPyUh7WuBoR0UAYCQclUfb/Cm1wUuduEch63zeVebEwmOWVWxEqsghClQb3l4bt3R4Ob9c4FtKMr32+VfvakckHte5G46ISdnve+Rb/Hw5dK8lwUl14R3va8m8qi7QwW0WxJaKZVgLxkKWF8oBD6bvkSQct9bHUX0sM3NPm/Y1ByhB7WuRuOiFNgJDzRTblc/wpHAyWtlXl4/wpzb+HxT7v0aQRkElyTpa1hcZTm18x9vSRseKZYFWdg0ovmIN/WYqL2FyFyi9he1G0o/L3OsjooMOAkKKMqkZR18vhXa7PkHJFH2+HLpU2ZZDAREwWQx8DMLgNbQkUN7NYTHIW9LlVxkQLlN+ICzHui1z5m/lRsTKPy9zrI6L2HBS3fhHe9r3U8q7/o573yLfxv9nO1FYOcnz/6EqvjBbR9Izb5dzvi2W+u6uLDu68IItfm17mwoGfogdr3J3HRSZMFJmXQdfW8j5V1/R8nsr+f+FFZe8vxP3Gg3aPCY53jOFlVFCvnBNrsRw65T+fpzsaG5lA7XuTuOi9xWBkEbcKgZTyPkfKnHwMhuCqkeBP8ACpUEci4YLK2aQRWdh1bLqeQ6+Qr3bUErwyLC5SUjgbQWYG4vcHTSx05E8udG6X5e55joogwMg5Kov59fzVxDgpNdB3j638Ke2HhsTGZRPLvAX+iPXIL2vZRYkZRbXUE31ojh+vzGkUfl7kbjohX9Gve+Rb+N/wCFcNgpM40HdPrea+VRdmYHaSzq0s6NDvHLKDrkK2RbZB61jz0sfG1WJu+vyt96U3Zbpnta5G46IS2z3PNVPTU9PzV6+EkFjYaMvXzHlUTtBgtovKWw0yJFu1GUmxL5yWscptdLcWtrctaOsGEYDG7cOYjqbi5H20aBJ3atwQQSM/RdMSeaX+JFeBiOSW+BHOoO3YMU+X0ZwhtJmuQBcxssZ7rXs5U+GnI6VG7O4THI7nFSq6lVyAG9jYX9RfPXXNe9hyojKZWZGSJwO1jwes3Ue01eqCOUYGltLDTnb4UxjEkaCVYTllIcI3g92sdQdL+VDJcLjzKpEqrHvVYi9zu8sQZe7rxLL+mpvpXoWGGNy2Cjid11tx2zrw+r4jxNC/8AsH93XnRjbnfX5f2mqjjcNjS30cgAzudWHcKgILZOYN/41r0XYaIME+y1LcxSCtfZcn0uAZbDP4jwNa3WQ9jUcT4YSG7hhmI6mx+H3Vr1Zfaf7R7BKtqEK7Ti+Hb5k/zEqi4vHRRywwM0meYkJbNbhBY3bkNB8fKrz2qkC4Z2JsAyX/WJWd7RWGaWCXfupgYsqqujEjKc11J7txp41Wo0g9s4Z+FTqNJcpmy8dFOZBGZPopN22bMvEACbX1trzpzZ8Q3MZu3cHrHwHnUDZKwwPM+/Z99JvCGSwVrW4cqg2sFGt+75m8jZ+0ot1GM3qAcm8B4CphbDdn8KItdsCn8LiopDaOXNwh9HJ4GvlPPkbG3wpxYuNtW5L6x97zodgI8JCQYyQRGIxcu3ApZlHFfkWbXnrUpdpRZ24ug9Vve8qYtm7sHRItdsCuJtqYZHMbThXDKpUubhn7o+2pc0Oq6t3vaPg3nQXF7PwMkpmcuXLIxIeUC8eqcINrA6gW560Tm2nFdeL1vBvBvKkLYbsHRMtdsCusXiIosu8kKZjZbsdSNa7wzpKgdHLIw0YMbHp94NQdoeiz5N4zHIbrYyLY2tfhtcjoelOYKfDwxLFGbIosAQx8TzIvzJp92E+QdEYXRoVKjRVjDFiAFBJLEAAC5JN+VN4PFQym0cuchVc5XOiuCUJ8LgEimWxWHki3bkMrJlZSrWII16VF2Rg8DhSWhGQsqqbBzcL3b3668+dHdhPkHRGF0borDCLvq3e9o+wlRRtLD593vuPOUy5jfOBcr8QNa7h2lFd+L1vZb2E8qHLs/AiXfWO83hkveTvnrblbra1qRthswdEBrtwUYkh4l1bmfWPgaYx2OghIEs2QsCQGci4UXY/ACvZNpRZl4vH1W8PhUDa2EwWJZWmGYqCo+sGjc+7a/l4UzbDZg6JBrpzBRBykkJdHLK0ZZSGNiCpII+ynMbLHErSSSFEHNixsLmw/vIqGMTh4oN0hsqRlVFmNgFsNSL/np3G4nDyo8TtdHBVhZhdToRcC/Kjuzf/A6Iwv5FdYDGQzZt1LnymzWY6Hz/ADU9BFz1bvH1j/5qPBisOhcqbF2zNo2rWVfDlZQLeVdQbSi14vWPqt/4oFs3dg6ILXbApqDauGdxGmIDOSyhQ5uWUXYc+g1qW0QzjVu63rHxXzoLhNl7PilEyKQ6szg3kPE4ysbHTlRNtpxZxx+q3qt4r5UhbDdg6ILXbArnG7Sw8LZJJwjWDWLm9ico08zew8jUiaMFbhmINrHMeRI86D7W2Zs/EuXmUsxQR3vIvCGz2GW3Xrz6URlx8ISwawFgBlbQAjyo7sN2DomWujIFPYiaOMgPJlLXtdyLhQXY8+QUEk03hMZDKxWOXMyhWIDm4DAMpPxBB+0UzjJMNKULsbpmy2zrbMpQ921+FiPK9M7NgwcDM0VwWVVJJkbRAFHevbRRc9bC9HdhPkHRGF0aFTuCONndyqqWLMWIAAZrk603HjsOz7sTXfNly5zfNYta1/BWP2Gm5MVBLE8bsSr51YAMLqxYEXAvyNRYsHg1k3oL584e5eU8Sq0YNibdxiLeFScN+wSDDuCltyEZ11bu+0fE0Ekx0CmxlAN2HePNRdh8QKMbXxiM4ykmy9FbxPlQGbZcDHMRJe7NoZBqwyki3Lh08q1KWIUhhifVadAEUgFYeyZVsTh3VsylgQbkggg1rlZB2PRExGGjQMFVgFBDaAKerVr9ZPaf7R7faVXVAu3H/BS/FP8AMSsd2nj2jxGGjDqFkZgwPM2U2sT0zWHxtW4bc2d6RA0ObJmy8Vr2ysrcrj2bc6qx/B+fyhf1X89dWdyynSLXOgzP9kMcAFlvZnazTSTKZVlC2ylVy9Te3u8gL6nXpRvCn6NflH3Vdl/B+RyxCj4Q/wA9eQ/g+KqF9JGgt9V/PVylfUWgBzp1zgrttQDdZ1svacsjhXiKAxBycrCz3AK3YW/3+YkO8fgP9VXb8QW/KR+q/nrkfg/a5PpI1AH1Xhf3/Ou2doUGiC4n4XQqt5rNcZtaZJWRYGdQ0YzBW7rHjPgbeXjryNF5fV+b9hq6/iC35SP1X89ct+D9jb+sjQ3+q+I9vzpNv6ImXk/CQqDmqBtXGyR5N3GZMxIIAPK1+Y0GvjTmzMQ8kKu6ZGIN1sRbUgaHXUa6+NX38QW/KR+q/npHsC35SP1X89Pv9HETjMcoT4rZ1VGlkKxFlUuQlwo5k25VA2FtOaYsJYTGAqEEhhcsLsNfA1o6dgGAA9JGn/S/9le/iE35SP1X/spG/o4gcZjlCXEHNUqPm/zf6VoOu1sRv936OQm8y57Hu3te/LlxX5WFuZrS1/B+wJ/rI1N/qvID/meVdfiC35SP1X/soff0XRDyPhBqNO6pT81+37jUHauLljK7tAwysW0YkZRpYKNbkgW66+FaCfwftcH0kaf9L+euvxBb8pH6r+em7tCgQQHEfCZqt5qhRTM8Adlys0dyuosStyNddDXu1sS8cTvGmdhay6m9yByGugN/sq9Sfg/Ygj0kagj6rx09uvfxBb8pH6r+en+QoRGI6awjit5rP9lY6SUyB4miykBc3rAqDe/Lnf4aX1qZD1+Jq6/iE35SP1X89cr+D9hf+sjnf6r+ek3tCgAAXE/CBVbzWZ4La+IeVUbDlULOC5B5KLg+Wulzz6UZbvD4H71q6/iE35SP1X89cn8H7XB9JHIj6rxt/wBTypMv6LRm8n4SFRvNZvjtqzI5VIC4DhRYNqpUEm9rcydeXD51KwGJeSBXkTIx5rYi1mtyOouBf7a0D8QW/KR+q/nrl/wfsRb0kfqv56QvqIJJeT6QgVBzVC2njHjy5UzXzX0Y2yqWGig82AH26VH2NtKaYtvITGAqkEhhqQCRxDxvp0t5itH/ABBb8pH6r+el+ILflI/Vfz0zf0ceLGY5QjiCdVQ8TMyRSOq5mUOQuupBYgaa60O/pabehNycpkVc2R+6RqeVhY9eX95Glp+D9h/+yOZ/svEk/wDM866/EJvykfqj/wDZSdf0TEPI+EGoOapI75+Ufe1CMVtedWsuGZxndbgHkq3XnbvN15fE1pf/AOP2vf0kcrfVfH3/ADrr8QW/KR+q/npvv6Lhk8j4QajTuqv2KnZ5sK7KVZiCykEWOU3FjrzrX6qOzOxhhmjlM4bI17bu19COec25+FW6su+rNqvBaZyhRVHAnJKlSpVSUaVKlSoQlSpUqEJUqVKhCVKlSoQlSpUqEJUqVKhCVKlSoQlSpUqEJUqVKhCVKlSoQlSpUqEJUqVKhCVKlSoQlSpUqEJUqVKhC//Z;" vertex="1" parent="8">
                    <mxGeometry x="430" y="83.13" width="352" height="276.87" as="geometry"/>
                </mxCell>
            </root>
        </mxGraphModel>
    </diagram>
</mxfile>